<?xml version="1.0" encoding="UTF-8"?><svg id="Ebene_2" xmlns="http://www.w3.org/2000/svg" viewBox="0 0 300 62.63"><defs><style>.cls-1{fill:#e12056;}.cls-2{fill:#1d1d1b;}.cls-3{fill:#29abe3;}</style></defs><g id="Layer_1"><g><g><path class="cls-1" d="M65.59,5.6c-3.61-3.61-8.41-5.6-13.51-5.6s-9.9,1.99-13.52,5.6c1.09,1.57,1.98,3.25,2.67,5.03h0s.12,.33,.12,.33c.96,2.61,1.44,5.35,1.44,8.14,0,5.12-1.68,10.12-4.74,14.2l13.43,13.43,14.1-14.11c3.61-3.61,5.6-8.4,5.6-13.51s-1.99-9.9-5.6-13.52Z"/><path class="cls-3" d="M31.67,33.48l.89-.89s.03-.03,.03-.03c.46-.47,.9-.95,1.3-1.45,2.75-3.38,4.26-7.65,4.26-12.01,0-4.13-1.3-8.07-3.76-11.36-.55-.75-1.16-1.46-1.8-2.1,0-.02,.02-.03,.03-.04C29.01,1.99,24.21,0,19.11,0S9.21,1.99,5.6,5.6C1.99,9.21,0,14.01,0,19.12s1.99,9.9,5.6,13.51l29.99,30.01,12.62-12.62-15.89-15.89-.65-.65Z"/></g><g><path class="cls-2" d="M109.04,5.1c3.82,0,6.93,1.29,9.46,3.82,2.53,2.53,3.82,5.64,3.82,9.4s-1.29,6.87-3.82,9.4c-2.53,2.53-5.64,3.82-9.46,3.82h-9.46v14.69h-5.46V5.1h14.92Zm0,21.33c2.29,0,4.17-.76,5.64-2.29,1.47-1.59,2.23-3.53,2.23-5.82,0-4.7-3.35-8.11-7.87-8.11h-9.46V26.42h9.46Z"/><path class="cls-2" d="M139.83,46.99c-4.29,0-7.99-1.47-10.99-4.46s-4.46-6.64-4.46-10.99,1.47-7.99,4.46-10.99c3-3,6.7-4.47,10.99-4.47s7.99,1.47,10.99,4.47c3,3,4.52,6.64,4.52,10.99s-1.53,7.99-4.52,10.99-6.7,4.46-10.99,4.46Zm7.4-7.99c2-2,2.99-4.46,2.99-7.46s-1-5.46-2.99-7.46c-2-2-4.47-3-7.4-3s-5.35,1-7.34,3-3,4.47-3,7.46,1,5.46,3,7.46c2,2,4.47,3,7.34,3s5.41-1,7.4-3Z"/><path class="cls-2" d="M161.4,46.22V5.1h5.11V46.22h-5.11Z"/><path class="cls-2" d="M194.83,16.85h5.47l-11.99,31.2c-2.53,6.64-7.17,10.34-13.04,9.93v-4.76c3.58,.29,6.23-1.7,7.93-5.99l.53-1.12-12.81-29.26h5.46l9.99,23.03,8.46-23.03Z"/><path class="cls-2" d="M209.69,21.78c1.7-3.64,4.76-5.46,9.17-5.46v5.35c-2.53-.12-4.64,.53-6.46,2s-2.7,3.76-2.7,6.99v15.57h-5.11V16.85h5.11v4.94Z"/><path class="cls-2" d="M236.08,46.99c-4.29,0-7.99-1.47-10.99-4.46s-4.46-6.64-4.46-10.99,1.47-7.99,4.46-10.99c3-3,6.7-4.47,10.99-4.47s7.99,1.47,10.99,4.47c3,3,4.52,6.64,4.52,10.99s-1.53,7.99-4.52,10.99-6.7,4.46-10.99,4.46Zm7.4-7.99c2-2,3-4.46,3-7.46s-1-5.46-3-7.46-4.46-3-7.4-3-5.35,1-7.34,3c-2,2-3,4.47-3,7.46s1,5.46,3,7.46c2,2,4.46,3,7.34,3s5.4-1,7.4-3Z"/><path class="cls-2" d="M256.76,8.09c0-1.88,1.53-3.47,3.47-3.47s3.41,1.59,3.41,3.47-1.53,3.41-3.41,3.41-3.47-1.53-3.47-3.41Zm.88,38.13V16.85h5.11v29.38h-5.11Z"/><path class="cls-2" d="M294.89,5.1h5.11V46.22h-5.11v-5.05c-2.53,3.88-6.23,5.82-11.1,5.82-4.11,0-7.64-1.47-10.52-4.46s-4.35-6.7-4.35-10.99,1.47-7.93,4.35-10.93c2.88-3,6.4-4.52,10.52-4.52,4.88,0,8.58,1.94,11.1,5.82V5.1Zm-3,33.96c2-2.06,3-4.52,3-7.52s-1-5.46-3-7.46c-2-2.06-4.46-3.05-7.46-3.05s-5.4,1-7.4,3.05c-2,2-3,4.47-3,7.46s1,5.46,3,7.52c2,2,4.46,3,7.4,3s5.46-1,7.46-3Z"/></g></g></g></svg>